# xmcd
#
# Track frame offsets: 
#        150
#        6702
#        26860
#        99056
#        116817
#        146177
#
# Disc length: 2818 seconds
#
# Revision: 0
# Processed by: cddbd v1.5.2PL0 Copyright (c) Steve Scherf et al.
# Submitted via: ExactAudioCopy v0.99pb5
#
DISCID=520b0006
DTITLE=Cream  - Wheels of Ice-1968-03-08 - Disc 1
DYEAR=1900
DGENRE=
TTITLE0=I'm So Glad
TTITLE1=Tales Of Brave Ulysses
TTITLE2=Spoonful
TTITLE3=Crossroads
TTITLE4=We're Going Wrong
TTITLE5=Sweet Wine
EXTD=
EXTT0=
EXTT1=
EXTT2=
EXTT3=
EXTT4=
EXTT5=
PLAYORDER=
